<svg width="1486" height="1519" viewBox="0 0 1486 1519" fill="none" xmlns="http://www.w3.org/2000/svg">
<rect width="1486" height="1519" rx="720" fill="#F0F0F0"/>
<path d="M429.756 1247.22H1011.06C1049.24 1247.22 1081.18 1221 1090.18 1185.62H350.637C359.649 1221 391.638 1247.22 429.756 1247.22" fill="#AAD4C8"/>
<path d="M348 1165.41C348 1172.39 348.99 1179.14 350.637 1185.62H1090.18C1091.83 1179.14 1092.81 1172.39 1092.81 1165.41V1152.41H348V1165.41Z" fill="#82BFAB"/>
<path d="M870.144 695.718H569.606V579.911C569.606 537.398 591.02 497.452 626.908 474.654C739.665 403.038 857.968 474.993 870.144 579.008V695.718ZM754.666 976.735V1041.21H686.177V976.735C656.787 958.622 642.491 918.422 668.238 878.838C670.762 874.973 674.123 871.582 677.975 869.054C730.483 834.457 785.986 871.262 785.986 921.039C785.986 944.677 773.386 965.19 754.666 976.735ZM989.005 596.614C989.005 403.284 783.661 256.956 579.722 364.374C500.336 406.183 451.839 489.849 451.839 579.578V695.718H399.086C370.865 695.718 348 718.577 348 746.799V1152.41H1092.81V746.79C1092.81 718.577 1069.95 695.718 1041.73 695.718H989.005H987.299V596.614H989.005Z" fill="#009B6B"/>
</svg>
